Patient4_TMGait_0pt3_02_right_15_EMG.mot
version=1
nRows=36
nColumns=33
inDegrees=no
endheader
time	1LAddLong	2LGlutMax	3LGlutMed	4LIliopsoas	5LSemiMemb	6LBicFemLong	7LRecFem	8LVastMed	9LVastLat	10LGasMed	11LTibAnt	12lTibPost	13LPeroneusLong	14LSol	15LExtDigLong	16LFlexDigLong	17RAddLong	18RGlutMax	19RGlutMed	20RIliopsoas	21RSemiMemb	22RBicFemLong	23RRecFem	24RVastMed	25RVastLat	26RGasMed	27RTibAnt	28RTibPost	29RPeroneusLong	30RSol	31RExtDigLong	32RFlexDigLong
30.133	0.000305	0.10696	-0.015717	0.009308	0.058746	0.02655	-0.26504	-0.003204	-0.027771	-0.011139	-0.021057	0.003052	0.27283	-0.030365	0.19455	0.020752	-0.042114	-0.18845	0.24368	0.036316	0.032654	0.059814	-0.026093	0.033722	0.0177	0.003662	0.014801	-0.002289	0.10178	-0.13763	-0.005798	-0.006409
30.134	0.001526	0.13687	-0.061798	0.002289	0.017853	0.041046	-0.16556	-0.007477	-0.039063	-0.011902	-0.022583	0.003204	0.23529	-0.072632	0.22736	0.024109	-0.018921	-0.18784	0.82413	-0.0914	0.0383	0.049896	-0.39352	0.029144	-0.009155	-0.000153	-0.032959	-0.003662	0.066681	-0.016327	0.005341	0.000916
30.135	0.000305	0.069122	-0.16007	-0.003357	-0.070953	-0.12726	0.006866	-0.062714	-0.14069	0.00412	-0.01358	0.007019	0.085907	-0.083466	0.17746	0.010681	-0.018463	-0.2243	0.45364	-0.048523	0.050354	0.019989	-0.47394	0.028839	-0.018005	-0.008545	-0.43793	-0.00473	0.10696	0.10727	-0.000916	-0.001068
30.136	0.015259	0.060272	-0.18494	0.007629	-0.016785	-0.20111	0.15259	-0.005188	-0.2681	-0.013885	-0.011749	0.001373	0.085602	-0.04425	0.17838	0.027466	-0.011902	-0.23331	0.044098	-0.032959	0.057373	0.032959	-0.33203	0.067444	-0.00946	-0.01709	-0.61035	-0.006256	-0.041046	0.13992	-0.003815	-0.009613
30.137	0.018005	0.022278	-0.11231	-0.002899	0.039825	-0.13443	0.20569	0.02243	-0.19577	0.040741	-0.004578	0.003204	0.19806	-0.076599	0.050659	0.013733	0.006256	-0.23544	0.14694	-0.10773	0.030365	0.001984	-0.14145	0.021515	-0.025177	-0.014191	-0.55267	-0.003052	-0.1091	-0.01709	-0.000305	-0.012512
30.138	0.032349	0.002594	-0.018921	-0.014038	0.03006	-0.02655	0.15686	0.028076	-0.16419	0.04776	-0.014496	0.002899	-0.15213	-0.080414	0.014801	0.014648	0.006866	-0.22247	0.7283	-0.10513	0.023956	0.00412	0.00824	0.015259	-0.04715	-0.006866	-0.47165	-0.00351	-0.029144	-0.16571	-0.002136	-0.005188
30.139	0.016937	0.023346	0.060883	-0.013123	0.006256	0.1358	0.050812	0.037842	-0.14511	0.067749	-0.018463	0.009003	-0.42877	-0.10132	0.040588	0.025787	0.020905	-0.21912	0.51743	-0.040131	0.009308	-0.020905	0.067291	-0.01709	-0.015564	0.006866	-0.69397	-0.001831	0.13947	-0.22095	-0.002441	-0.002899
30.14	0.031891	0.04776	-0.0383	-0.038452	0.001526	0.28091	0.005646	0.02243	-0.089569	0.068054	0.00351	-0.001221	-0.31509	-0.066376	0.10193	0.016479	0.042419	-0.18478	0.034332	-0.041199	-0.008698	-0.014343	0.10178	-0.050201	-0.027161	0.014954	-0.11307	0.001831	0.20325	-0.25192	-0.001831	0.000305
30.141	0.034332	0.019836	-0.1622	-0.026093	0.015717	0.42206	-0.12985	-0.011444	-0.021515	0.068359	0.031281	-0.006866	0.6427	0.004883	0.13992	0.018616	0.079498	-0.21713	-0.18921	-0.029297	-0.007782	-0.017853	0.18097	-0.015106	-0.023651	0.017395	0.71121	-0.002747	0.064392	-0.22675	-0.001068	0.001984
30.142	0.022888	0.059052	-0.16098	0.013123	0.005493	0.43457	-0.23285	-0.04364	0.045471	-0.018311	0.032043	-0.12558	1.2604	0.026245	0.10254	0.062408	0.096893	-0.22415	-0.078278	-0.091095	-0.020752	-0.024872	0.26169	-0.031281	0.012817	0.002136	1.0219	-0.006714	-0.049591	-0.13443	-0.003815	-0.005493
30.143	0.017242	0.035248	0.000458	0.016937	0.016937	0.1535	-0.15381	-0.053253	0.066376	-0.11932	-0.028381	-0.20325	0.30456	0.15137	0.18829	0.055389	0.11795	-0.14496	0.14694	-0.083466	-0.023651	-0.029907	0.29068	0.000763	0.032959	0.001221	0.57465	-0.005035	0.037994	-0.23025	-0.004578	-0.000916
30.144	0.01236	0.072479	0.013275	-0.018005	0.009918	-0.14191	-0.060272	-0.03418	0.12238	-0.056152	-0.028076	0.28824	-1.412	0.15472	0.063324	0.02533	0.15671	-0.1413	0.36026	-0.001221	-0.026093	-0.028229	0.2121	-0.063171	0.033112	0.003662	0.26871	-0.010834	-0.063019	-0.11749	-0.006866	-0.011597
30.145	0.014038	0.053406	-0.070953	-0.03006	0.003967	-0.032196	0.082855	0.001831	0.093842	-0.079346	-0.056152	0.10208	0.37705	0.09079	-0.10544	0.010071	0.09491	-0.18234	0.62439	-0.010834	-0.023804	-0.041962	0.11887	-0.046997	0.028381	-0.007019	0.30472	-0.009308	-0.054474	0.11795	-0.006561	-0.007629
30.146	0.014954	0.1004	-0.10895	-0.019226	0.007935	-0.22751	0.097046	0.014343	0.10269	-0.049133	-0.070496	0.035706	0.62546	0.19684	-0.076141	0.016174	0.044098	-0.12833	0.3009	0.054626	0.000458	-0.02655	0.021057	-0.032349	0.025177	-0.010071	0.36423	-0.007324	-0.018158	0.19073	-0.002594	-0.004425
30.147	0.00885	0.14053	-0.1593	0.008545	0	-0.1387	0.059357	0.029602	0.050964	-0.001373	-0.00412	-0.024872	-0.35339	0.092468	-0.13825	0.016785	-0.016785	-0.19058	-0.49759	0.087738	0.024872	0.002289	-0.079346	0.028076	0.03479	-0.00412	0.76736	-0.007782	-0.024567	0.052795	-0.005798	0.001068
30.148	0.000305	0.17716	0.088654	0.003204	0.015717	-0.032959	0.075073	0.029144	0.052948	-0.037842	-0.046387	-0.000458	0.23621	0.11841	-0.13901	0.032043	-0.050812	-0.1358	-0.47501	0.052338	0.019379	0.006104	-0.10635	0.039368	0.035706	-0.003204	1.0121	-0.002899	-0.073242	0.12955	-0.00351	-0.002289
30.149	0.00061	0.20599	0.42343	0.007629	0.009766	-0.31387	0.16434	0.010681	0.03418	-0.069733	-0.032349	0.003967	0.36209	0.14236	0.080414	0.044861	-0.090179	-0.16296	-0.22766	-0.01709	-0.029602	0.05188	-0.067596	0.078888	0.034027	-0.002136	0.18799	-0.002441	-0.031891	0.21347	-0.005188	0.000916
30.15	-0.00473	0.12741	0.28427	0.009918	0.008698	-0.27634	0.063019	0.021057	-0.075226	-0.031128	-0.000153	-0.009308	-0.50049	-0.055237	0.098572	0.03067	-0.10498	-0.21439	0.14603	0.077057	-0.037537	0.032501	-0.08255	0.048523	0.039978	0.007935	-1.1342	-0.004883	0.097504	0.159	-0.001373	0.007324
30.151	-0.017242	0.068512	0.21851	0.032501	0.005035	-0.21576	0.020294	0.040741	-0.10239	-0.039368	-0.035553	-0.007629	-0.48966	-0.022583	-0.019836	0.042572	-0.079041	-0.22873	0.10269	0.09552	0.016479	0.051575	-0.082092	0.059662	0.046234	0.006104	-0.58212	-0.00061	0.061646	0.057678	-0.002441	0.002441
30.152	-0.019226	0.065918	0.042725	0.002136	-0.001068	-0.31021	-0.000305	0.029602	0.065765	0.027161	-0.044708	-0.002899	-0.31937	-0.097656	-0.20355	0.0177	-0.0383	-0.21759	0.20447	0.026855	0.025177	0.011902	-0.041809	0.011597	0.018616	0.004425	0.30884	-0.003357	0.036926	-0.037079	-0.002441	-0.002441
30.153	-0.016785	0.091553	-0.15213	0.007782	-0.002899	-0.35172	-0.054474	0.007324	0.23056	0.037384	-0.033417	-0.008698	-0.028687	-0.024719	-0.11871	0.017242	-0.03067	-0.2005	0.27435	-0.027313	0.009918	0.030518	-0.14557	-0.001373	0.018921	-0.011444	0.45364	0.006714	-0.15656	-0.046539	0.002136	-0.009155
30.154	-0.005188	0.11841	-0.17609	-0.007019	0.004578	-0.38406	-0.13763	0.005341	0.30655	-0.008087	-0.018311	-0.00824	-0.041504	-0.007782	-0.035248	0.028381	-0.03479	-0.1683	-0.016937	-0.10483	0.024567	0.021973	-0.17624	-0.031586	0.029449	-0.010071	0.55359	-0.001678	-0.26184	-0.026703	-0.001831	-0.013275
30.155	-0.006714	0.095367	-0.10132	-0.01297	0.010529	-0.11597	-0.13473	-0.000763	0.28046	-0.000153	0.032349	-0.005341	0.04303	-0.061798	0.15472	0.025787	-0.032349	-0.14938	0.121	-0.34012	0.014648	0.023193	-0.14786	-0.00473	0.007782	-0.007935	-0.11993	-0.001068	-0.17395	-0.078888	-0.003815	-0.006866
30.156	-0.011139	0.035095	-0.21316	-0.006866	0.002136	0.28961	-0.02655	0.01297	0.13962	-0.02533	0.017395	0.004425	0.2655	-0.018311	0.19409	0.030518	-0.016632	-0.15869	0.5307	-0.44403	0.013733	0.020294	-0.11597	0.003967	0.019226	-0.002747	-0.63248	-0.001068	-0.099487	-0.095062	-0.00351	-0.010529
30.157	-0.023041	-0.08255	-0.10223	0.027313	-0.019226	0.3186	0.15839	0.01709	0.037079	-0.045166	-0.005646	0.007172	0.13001	0.07782	0.29831	0.029755	-0.006561	-0.17777	0.51498	-0.28717	0.005951	0.015106	-0.079346	0.013885	0.019073	0.007782	-0.29404	-0.009918	-0.080109	-0.072632	-0.010223	-0.003662
30.158	-0.017242	-0.12665	0.087433	0.038605	-0.01709	0.23529	0.21576	0.023804	-0.20477	-0.012512	-0.16251	-0.000153	-0.059204	0.13916	0.1033	0.024719	-0.006256	-0.10635	0.47546	0.21561	0.00885	0.020905	-0.062256	0.002136	0.025635	-0.001221	0.13031	-0.008545	0.053864	-0.079041	-0.001526	-0.001221
30.159	-0.013885	-0.23346	0.1236	0.026855	-0.009003	0.23697	0.043793	0.019379	-0.27374	0.010986	-0.1889	0.001984	-0.11719	0.10925	-0.41321	0.043793	0.019379	-0.14847	-0.11765	0.52948	0.010529	0.006866	-0.036469	-0.02594	0.020752	0.000305	-0.13336	-0.007477	0.11932	-0.046692	-0.002747	-0.003052
30.16	-0.020447	-0.17487	0.059662	-0.014038	-0.039673	0.18158	-0.048676	-0.005646	-0.053406	-0.010681	-0.096588	-0.000763	0.18784	0.11963	-0.55603	0.045929	0.052795	-0.097961	-0.12756	0.57083	0.006866	0.000458	-0.057678	-0.036316	0.002747	-0.004425	-0.10834	-0.007477	0.11704	0.014496	-0.005341	-0.010071
30.161	-0.000763	-0.13809	-0.004425	-0.014801	-0.022583	-0.04364	0.005188	-0.040436	0.075226	-0.041809	-0.14374	-0.000305	0.049744	0.079651	-0.22217	0.049438	0.047913	-0.17731	0.045471	0.34454	-0.006866	-0.000763	0.016785	-0.032959	0.007782	-0.012665	-0.58334	-0.006561	0.077362	0.17242	0.00061	-0.006104
30.162	-0.004425	-0.17899	-0.082245	-0.00412	0.001221	-0.15457	0.00061	-0.02533	0.068359	-0.024567	0.31097	-0.002441	-0.42557	0.14267	-0.023193	0.043335	0.021362	-0.13977	0.028381	0.14984	-0.005493	0.002136	0.037689	-0.039825	0.013275	-0.016022	-0.47058	-0.011292	-0.12833	0.16205	-0.002289	-0.007324
30.163	0.001221	-0.14465	-0.046082	0.007324	-0.00885	-0.13962	0.036163	0.000458	0.007935	-0.033875	0.31754	0.003662	-0.16892	0.009308	-0.13275	0.038605	0.018005	-0.092926	0.46402	0.070343	-0.001678	0.012817	0.052338	-0.023499	0.010529	-0.013275	-0.23666	-0.015717	-0.28931	0.09613	-0.001373	-0.004578
30.164	0.005646	-0.11276	0.016632	0	-0.070648	-0.054474	0.061188	0.012512	0.005341	-0.023041	0.16968	0.002289	0.041351	-0.06073	0.095673	0.032654	0.022278	-0.092773	0.18936	0.014801	-0.001831	0.028534	0.011444	0.005341	0.028381	-0.008087	-0.019226	-0.00885	-0.22842	-0.001068	-0.001373	-0.002747
30.165	0.011902	-0.097504	-0.10956	-0.029297	-0.030823	-0.02533	0.1355	0.006714	-0.053101	0.025482	0.14893	-0.002594	-0.34302	-0.022278	0.072937	0.032654	0.065308	-0.1004	0.1239	0.073853	-0.018005	0.037994	-0.02655	-0.030365	0.028229	0.003052	0.19394	-0.005798	-0.019073	-0.1329	-0.005188	-0.004578
30.166	0.012512	-0.098267	-0.046082	-0.024414	0.071106	0.01709	0.14191	0.014801	-0.067902	0.048065	-0.19409	0.001068	0.054016	-0.044708	0.061035	0.027161	0.063934	-0.10422	-0.046844	0.19196	-0.031738	0.014496	-0.014343	-0.022125	0.037994	0.000916	0.14389	-0.010529	0.016022	-0.14816	-0.000763	0.000153
30.167	0.008087	-0.088348	-0.088348	0.006104	0.05722	0.0737	0.061798	0.02243	-0.09613	0.070953	-0.084991	0.00412	0.39703	-0.21698	-0.010681	0.038757	0.071716	-0.1091	-0.11643	0.11063	-0.018158	-0.010071	-0.002289	0.012665	0.023956	-0.009155	0.47379	-0.009308	-0.055695	-0.055847	-0.002441	0.001221
30.168	0.012665	-0.1088	0.11093	0.017548	0.020752	0.0914	-0.039978	0.010529	-0.072632	0.07843	-0.053558	0.002747	0.82275	-0.18387	0.41153	0.042572	0.098724	-0.11276	-0.027313	-0.046844	-0.035553	0.000305	-0.025177	-0.050354	0.019379	-0.011902	0.56366	-0.003967	-0.22003	-0.035095	-0.002747	-0.009613
